<svg width="63" height="63" viewBox="0 0 63 63" fill="none" xmlns="http://www.w3.org/2000/svg">
<path d="M46.1627 43.8952L5.50178 61.5876C2.8513 62.6424 0.217281 60.0311 1.24906 57.3717L19.0176 16.0708" fill="#FFB636"/>
<path d="M1.24905 57.3721L2.66117 54.0899C2.78227 53.9052 2.90299 53.7204 3.0242 53.5359C10.0479 42.8359 17.1745 32.2013 24.5445 21.7365L32.8081 30.2068C26.5731 34.4873 6.3277 55.4091 2.08706 60.9586C1.16393 60.1095 0.715293 58.7479 1.24905 57.3721Z" fill="#FFD469"/>
<path d="M37.1179 25.4548C44.6607 32.9976 48.7863 41.1013 46.3326 43.5551C43.879 46.0088 35.7752 41.8833 28.2323 34.3405C20.6894 26.7977 16.564 18.6939 19.0176 16.2401C21.4713 13.7863 29.575 17.9119 37.1179 25.4548Z" fill="#A06C33"/>
<path d="M18.9748 40.472C18.9748 41.2052 18.3804 41.7994 17.6474 41.7994C16.9144 41.7994 16.3201 41.2052 16.3201 40.472C16.3201 39.7389 16.9143 39.1447 17.6474 39.1447C18.3806 39.1447 18.9748 39.7389 18.9748 40.472Z" fill="#F7F9AA"/>
<path d="M61.2148 26.5188C61.2148 27.5709 60.3619 28.4238 59.3098 28.4238C58.2576 28.4238 57.4047 27.5709 57.4047 26.5188C57.4047 25.4667 58.2576 24.6138 59.3098 24.6138C60.3619 24.6138 61.2148 25.4667 61.2148 26.5188ZM48.4931 51.8861C47.441 51.8861 46.5881 52.739 46.5881 53.7911C46.5881 54.8433 47.441 55.6962 48.4931 55.6962C49.5452 55.6962 50.3981 54.8433 50.3981 53.7911C50.3981 52.739 49.5451 51.8861 48.4931 51.8861Z" fill="#FFB636"/>
<path d="M43.4063 10.2217C43.2429 11.3272 42.5286 12.3036 41.4466 12.9006C40.6996 13.3128 39.8211 13.5271 38.9093 13.5271C38.6188 13.5269 38.3288 13.5055 38.0414 13.4629C37.3966 13.3676 36.7511 13.4649 36.2708 13.7299C36.0554 13.8486 35.6854 14.1085 35.6253 14.515C35.5653 14.9214 35.8443 15.2772 36.0159 15.4532C36.3888 15.8355 36.9579 16.1094 37.5828 16.2117C37.6 16.2135 37.617 16.2141 37.6342 16.2167C40.2706 16.6064 42.1537 18.6946 41.8317 20.8717C41.6683 21.9773 40.9541 22.9537 39.8719 23.5507C39.1249 23.9629 38.2465 24.1772 37.3347 24.1772C37.0443 24.177 36.7542 24.1556 36.4669 24.113C35.8221 24.0175 35.1764 24.1148 34.6961 24.38C34.4807 24.4987 34.1108 24.7586 34.0506 25.165C33.9543 25.8173 34.7552 26.6785 36.0591 26.8712C36.7684 26.976 37.2585 27.6361 37.1537 28.3456C37.0583 28.9907 36.5039 29.4543 35.8708 29.4543C35.8075 29.4543 35.7436 29.4497 35.6792 29.4402C33.0429 29.0505 31.1599 26.9621 31.4817 24.7852C31.6451 23.6796 32.3594 22.7032 33.4415 22.1062C34.4238 21.5642 35.6331 21.3645 36.8467 21.5439C37.4916 21.6391 38.1369 21.5419 38.6174 21.2769C38.8327 21.1582 39.2027 20.8983 39.2628 20.4919C39.3576 19.8502 38.5827 19.0077 37.3162 18.7971C37.2955 18.795 37.2746 18.7933 37.2538 18.7902C36.0403 18.6107 34.9404 18.0698 34.157 17.2668C33.294 16.3822 32.8928 15.2408 33.0563 14.1351C33.2197 13.0297 33.9339 12.0532 35.016 11.4562C35.9982 10.9143 37.2076 10.7145 38.4212 10.8939C39.0658 10.989 39.7115 10.892 40.1918 10.627C40.4072 10.5082 40.7771 10.2483 40.8373 9.84189C40.8972 9.43544 40.6182 9.07961 40.4467 8.90364C40.0635 8.51098 39.4739 8.23099 38.8288 8.13575C38.1195 8.03088 37.6294 7.37079 37.7342 6.66131C37.839 5.95183 38.4993 5.46234 39.2087 5.56661C40.4222 5.74611 41.5221 6.28706 42.3055 7.09007C43.1686 7.97478 43.5698 9.11619 43.4063 10.2217Z" fill="#BEA4FF"/>
<path d="M9.96672 20.0003C9.96672 21.1925 9.00018 22.159 7.80792 22.159C6.61566 22.159 5.64912 21.1925 5.64912 20.0003C5.64912 18.808 6.61566 17.8415 7.80792 17.8415C9.00018 17.8415 9.96672 18.8079 9.96672 20.0003ZM48.5557 17.5061C47.1782 17.5061 46.0617 18.6228 46.0617 20.0001C46.0617 21.3775 47.1783 22.4942 48.5557 22.4942C49.9331 22.4942 51.0497 21.3775 51.0497 20.0001C51.0497 18.6228 49.9332 17.5061 48.5557 17.5061ZM26.2828 48.8049C24.9053 48.8049 23.7887 49.9216 23.7887 51.299C23.7887 52.6763 24.9054 53.793 26.2828 53.793C27.6602 53.793 28.7768 52.6763 28.7768 51.299C28.7768 49.9216 27.6602 48.8049 26.2828 48.8049ZM59.3669 37.3853C59.744 36.6549 59.4577 35.757 58.7274 35.3799C58.4362 35.2296 58.0886 35.0301 57.6862 34.7993C54.1507 32.771 46.7942 28.5506 38.132 35.5442C37.4924 36.0606 37.3927 36.9977 37.909 37.6372C38.4252 38.2768 39.3622 38.3768 40.002 37.8602C47.079 32.1464 52.7918 35.4232 56.2049 37.3812C56.6199 37.6193 57.0119 37.8441 57.3613 38.0246C57.535 38.1143 57.7246 38.169 57.9194 38.1854C58.1142 38.2018 58.3103 38.1797 58.4965 38.1203C58.6828 38.061 58.8555 37.9655 59.0048 37.8394C59.1541 37.7132 59.2772 37.5589 59.3669 37.3853Z" fill="#FF6E83"/>
<path d="M53.026 8.18079C53.026 8.91393 52.4316 9.50817 51.6986 9.50817C50.9655 9.50817 50.3712 8.91393 50.3712 8.18079C50.3712 7.44766 50.9655 6.85342 51.6986 6.85342C52.4317 6.8533 53.026 7.44766 53.026 8.18079ZM5.64903 1.97597C4.91589 1.97597 4.32166 2.57021 4.32166 3.30335C4.32166 4.03648 4.91589 4.63072 5.64903 4.63072C6.38216 4.63072 6.97653 4.03648 6.97653 3.30335C6.97653 2.57021 6.38216 1.97597 5.64903 1.97597ZM26.4628 19.2992C26.6129 19.0048 26.798 18.6695 26.994 18.3147C27.9883 16.5134 29.3499 14.0467 29.4319 11.1737C29.5303 7.72216 27.7327 4.58841 24.0892 1.85952C23.4567 1.38576 22.5602 1.51465 22.0868 2.14694C21.6131 2.77935 21.7418 3.67589 22.3742 4.1494C25.2704 6.31857 26.6435 8.58955 26.5721 11.0921C26.51 13.2715 25.3896 15.3012 24.4893 16.932C24.2819 17.3079 24.0858 17.6629 23.9146 17.9986C23.5555 18.7024 23.8348 19.5639 24.5385 19.923C24.7394 20.026 24.9619 20.0797 25.1876 20.0797C25.4515 20.0799 25.7102 20.0071 25.9353 19.8693C26.1603 19.7315 26.3429 19.5342 26.4628 19.2992Z" fill="#59CAFC"/>
</svg>
